<svg xmlns="http://www.w3.org/2000/svg" viewBox="0 0 1200 760" role="img" aria-labelledby="title desc">
  <title id="title">Team Sankalp LIC Agent Vadodara professional advisory visual</title>
  <desc id="desc">A clean corporate illustration for Rahul Sharma and Team Sankalp in Vadodara.</desc>
  <defs>
    <linearGradient id="bg" x1="0" y1="0" x2="1" y2="1"><stop offset="0" stop-color="#f7fbff"/><stop offset="0.52" stop-color="#ffffff"/><stop offset="1" stop-color="#fff3cf"/></linearGradient>
    <linearGradient id="blue" x1="0" y1="0" x2="1" y2="1"><stop offset="0" stop-color="#0b3f8a"/><stop offset="1" stop-color="#082b5f"/></linearGradient>
    <filter id="shadow" x="-20%" y="-20%" width="140%" height="140%"><feDropShadow dx="0" dy="18" stdDeviation="18" flood-color="#082b5f" flood-opacity="0.18"/></filter>
  </defs>
  <rect width="1200" height="760" rx="32" fill="url(#bg)"/>
  <circle cx="990" cy="120" r="150" fill="#c99a2e" opacity="0.16"/>
  <circle cx="190" cy="640" r="160" fill="#0b3f8a" opacity="0.08"/>
  <g filter="url(#shadow)">
    <rect x="140" y="120" width="920" height="520" rx="28" fill="#ffffff"/>
    <rect x="140" y="120" width="920" height="92" rx="28" fill="url(#blue)"/>
    <circle cx="198" cy="166" r="15" fill="#f5d575"/>
    <circle cx="246" cy="166" r="15" fill="#ffffff" opacity="0.7"/>
    <circle cx="294" cy="166" r="15" fill="#ffffff" opacity="0.45"/>
  </g>
  <g transform="translate(228 286)">
    <rect x="0" y="176" width="744" height="22" rx="11" fill="#d9e3ef"/>
    <rect x="82" y="0" width="160" height="176" rx="18" fill="#e9f1fb"/>
    <circle cx="162" cy="58" r="42" fill="#c99a2e" opacity="0.9"/>
    <path d="M83 176c12-58 46-88 79-88s67 30 80 88z" fill="#0b3f8a"/>
    <rect x="292" y="28" width="160" height="148" rx="18" fill="#e9f1fb"/>
    <circle cx="372" cy="78" r="38" fill="#f5d575"/>
    <path d="M294 176c14-50 45-76 78-76s64 26 78 76z" fill="#082b5f"/>
    <rect x="502" y="0" width="160" height="176" rx="18" fill="#e9f1fb"/>
    <circle cx="582" cy="58" r="42" fill="#d7a747"/>
    <path d="M504 176c14-58 46-88 78-88s65 30 79 88z" fill="#0b3f8a"/>
    <path d="M190 246h360" stroke="#0b3f8a" stroke-width="12" stroke-linecap="round" opacity="0.9"/>
    <path d="M250 296h240" stroke="#c99a2e" stroke-width="12" stroke-linecap="round"/>
  </g>
  <g transform="translate(250 238)">
    <rect x="0" y="0" width="220" height="60" rx="12" fill="#fff6db"/>
    <text x="26" y="38" fill="#082b5f" font-family="Arial, Helvetica, sans-serif" font-size="22" font-weight="700">Team Sankalp</text>
  </g>
  <g transform="translate(704 238)">
    <rect x="0" y="0" width="250" height="60" rx="12" fill="#eef5ff"/>
    <text x="24" y="38" fill="#082b5f" font-family="Arial, Helvetica, sans-serif" font-size="20" font-weight="700">Vadodara Guidance</text>
  </g>
</svg>
