<svg xmlns="http://www.w3.org/2000/svg" viewBox="0 0 1200 760" role="img" aria-labelledby="title desc">
  <title id="title">Vadodara Rojgaar LIC career opportunity with Team Sankalp</title>
  <desc id="desc">Professional recruitment visual for LIC Agent Vadodara, LIC Career Vadodara and LIC Recruitment Vadodara.</desc>
  <defs>
    <linearGradient id="bg" x1="0" y1="0" x2="1" y2="1"><stop offset="0" stop-color="#f7fbff"/><stop offset="0.55" stop-color="#ffffff"/><stop offset="1" stop-color="#fff3cf"/></linearGradient>
    <linearGradient id="blue" x1="0" y1="0" x2="1" y2="1"><stop offset="0" stop-color="#0b3f8a"/><stop offset="1" stop-color="#082b5f"/></linearGradient>
    <filter id="shadow" x="-20%" y="-20%" width="140%" height="140%"><feDropShadow dx="0" dy="18" stdDeviation="18" flood-color="#082b5f" flood-opacity="0.18"/></filter>
  </defs>
  <rect width="1200" height="760" rx="32" fill="url(#bg)"/>
  <circle cx="1000" cy="130" r="150" fill="#c99a2e" opacity="0.16"/>
  <circle cx="190" cy="640" r="160" fill="#0b3f8a" opacity="0.08"/>
  <g filter="url(#shadow)">
    <rect x="130" y="110" width="940" height="540" rx="30" fill="#fff"/>
    <rect x="130" y="110" width="940" height="116" rx="30" fill="url(#blue)"/>
  </g>
  <text x="190" y="184" fill="#f5d575" font-family="Arial, Helvetica, sans-serif" font-size="44" font-weight="800">Vadodara Rojgaar</text>
  <text x="190" y="272" fill="#082b5f" font-family="Arial, Helvetica, sans-serif" font-size="42" font-weight="800">Become LIC Agent in Vadodara</text>
  <text x="190" y="328" fill="#40526c" font-family="Arial, Helvetica, sans-serif" font-size="26" font-weight="700">LIC Career Vadodara • LIC Recruitment Vadodara</text>
  <g transform="translate(190 390)">
    <rect x="0" y="0" width="820" height="150" rx="22" fill="#f3f7fc" stroke="#d9e3ef"/>
    <circle cx="84" cy="75" r="46" fill="#c99a2e" opacity="0.9"/>
    <path d="M38 132c8-47 28-72 46-72s39 25 46 72z" fill="#0b3f8a"/>
    <rect x="170" y="36" width="210" height="22" rx="11" fill="#0b3f8a" opacity="0.9"/>
    <rect x="170" y="76" width="300" height="18" rx="9" fill="#c99a2e" opacity="0.9"/>
    <rect x="170" y="112" width="245" height="14" rx="7" fill="#8fa1b8"/>
    <path d="M580 112l62-62 48 48 82-92" fill="none" stroke="#0b3f8a" stroke-width="18" stroke-linecap="round" stroke-linejoin="round"/>
    <circle cx="642" cy="50" r="14" fill="#c99a2e"/><circle cx="690" cy="98" r="14" fill="#c99a2e"/><circle cx="772" cy="6" r="14" fill="#c99a2e"/>
  </g>
  <g transform="translate(190 582)">
    <rect width="210" height="48" rx="10" fill="#0b3f8a"/><text x="30" y="31" fill="#fff" font-family="Arial, Helvetica, sans-serif" font-size="20" font-weight="800">Apply Now</text>
    <rect x="238" width="292" height="48" rx="10" fill="#e7f8ef" stroke="#aee6c8"/><text x="264" y="31" fill="#063f28" font-family="Arial, Helvetica, sans-serif" font-size="20" font-weight="800">WhatsApp Rahul Sharma</text>
  </g>
</svg>
